<?xml version="1.0" standalone="no"?>
<!DOCTYPE svg PUBLIC "-//W3C//DTD SVG 20010904//EN"
 "http://www.w3.org/TR/2001/REC-SVG-20010904/DTD/svg10.dtd">
<svg version="1.0" xmlns="http://www.w3.org/2000/svg"
 width="1200.000000pt" height="675.000000pt" viewBox="0 0 1200.000000 675.000000"
 preserveAspectRatio="xMidYMid meet">

<g transform="translate(0.000000,675.000000) scale(0.100000,-0.100000)"
fill="#000000" stroke="none">
<path d="M0 3375 l0 -3375 6000 0 6000 0 0 1874 0 1874 -32 12 c-18 7 -27 14
-20 17 6 2 12 13 12 24 0 12 7 19 20 19 20 0 20 7 20 441 l0 442 -52 49 c-98
91 -314 270 -382 317 -28 18 -90 46 -138 62 -84 27 -90 27 -130 13 -48 -17
-115 -20 -203 -10 -37 4 -73 2 -95 -5 -19 -6 -75 -15 -125 -20 -49 -4 -110
-11 -135 -15 -65 -9 -74 5 -76 125 -4 160 -21 259 -56 318 -43 71 -120 151
-195 202 -68 46 -77 56 -37 41 44 -17 72 -12 76 13 3 24 32 28 96 13 43 -10
50 9 26 69 -16 37 -24 45 -45 45 -43 0 -54 23 -35 70 21 53 21 54 -15 95 -20
22 -40 35 -56 35 -48 0 -119 -24 -150 -51 -17 -15 -46 -30 -65 -34 -62 -12
-68 -16 -68 -41 0 -13 5 -24 10 -24 6 0 10 -4 10 -10 0 -6 9 -19 20 -30 13
-13 20 -33 20 -56 0 -35 -1 -36 -27 -28 -57 16 -294 12 -372 -8 -41 -10 -85
-18 -97 -18 -12 0 -29 -7 -37 -15 -8 -7 -26 -17 -41 -21 -14 -3 -26 -10 -26
-15 0 -5 -6 -9 -13 -9 -22 0 -119 -80 -157 -129 -39 -50 -110 -182 -110 -203
0 -20 -24 -68 -33 -68 -4 0 -22 -15 -39 -32 -17 -18 -28 -28 -24 -21 3 6 1 13
-6 15 -10 4 -10 16 -2 56 13 64 4 84 -52 117 l-41 25 -49 -25 c-27 -14 -58
-25 -68 -25 -11 0 -66 25 -123 55 -133 70 -154 71 -234 9 -70 -54 -73 -75 -19
-112 19 -13 35 -28 35 -34 0 -20 -52 -26 -134 -15 -61 8 -93 8 -129 -1 -88
-23 -187 -17 -293 16 -79 25 -103 29 -135 21 -22 -4 -54 -9 -73 -9 l-34 0 7
50 7 49 -43 11 c-34 10 -58 9 -124 -4 -113 -23 -153 -13 -154 36 0 10 8 52 17
93 14 64 15 88 5 148 -19 117 -44 186 -84 232 -21 24 -38 47 -38 52 0 18 -157
187 -190 205 -19 10 -54 18 -77 18 -24 0 -43 5 -43 10 0 6 5 10 12 10 6 0 3 7
-8 15 -38 28 -174 9 -174 -25 0 -6 -4 -10 -10 -10 -5 0 -10 6 -10 14 0 26 -34
41 -118 51 -135 17 -314 -15 -367 -65 -11 -11 -40 -26 -63 -34 -47 -17 -138
-89 -147 -116 -3 -9 -16 -22 -30 -28 -25 -12 -85 -105 -85 -134 0 -9 -12 -30
-26 -48 -20 -23 -29 -28 -40 -20 -49 42 -139 254 -124 294 7 20 26 33 83 55
15 6 27 15 27 21 0 19 -82 48 -155 55 -38 4 -90 16 -114 26 -24 10 -57 19 -73
19 -16 0 -71 13 -121 29 -51 16 -121 36 -157 46 -96 24 -313 81 -410 109 -47
13 -137 38 -200 55 -63 18 -181 54 -262 81 l-148 50 -2215 0 -2215 0 0 -3375z
m10305 2445 c3 -5 2 -10 -4 -10 -5 0 -13 5 -16 10 -3 6 -2 10 4 10 5 0 13 -4
16 -10z m-4255 -35 c18 -16 21 -27 17 -59 -3 -21 -10 -43 -16 -49 -11 -11 -78
-12 -391 -5 -118 3 -223 8 -233 13 -10 4 -23 19 -28 33 -8 20 -6 29 9 45 16
16 43 20 198 28 98 5 188 11 199 13 11 2 66 3 121 3 86 -2 105 -5 124 -22z
m-742 -56 c5 -40 -27 -71 -73 -71 -55 0 -324 27 -330 34 -16 15 277 68 360 65
35 -2 40 -5 43 -28z m1044 -79 c2 -31 -1 -56 -7 -57 -5 -2 -10 0 -10 5 0 4 -4
13 -9 20 -4 7 -5 16 -2 19 3 3 1 13 -3 22 -11 20 6 68 19 55 5 -5 11 -34 12
-64z m-1551 28 c0 -7 0 -35 -1 -63 -1 -27 4 -85 11 -128 16 -99 22 -102 143
-92 50 5 107 8 126 7 80 -2 132 -2 260 3 74 3 216 7 315 9 343 6 430 21 442
77 3 16 9 27 13 24 8 -5 26 -100 34 -182 4 -47 3 -54 -17 -64 -30 -16 -37 -28
-37 -69 0 -41 34 -137 59 -165 19 -21 67 -120 81 -167 6 -20 4 -31 -11 -44
-16 -14 -23 -15 -49 -4 -50 21 -70 59 -70 133 0 97 5 95 -190 69 -31 -4 -72
-18 -93 -31 -31 -19 -37 -28 -37 -56 0 -19 4 -36 9 -39 5 -3 12 -22 15 -41 4
-21 17 -41 32 -51 22 -15 29 -15 84 0 51 15 63 15 92 3 37 -16 68 -55 68 -86
0 -24 -36 -51 -66 -51 -34 0 -47 -24 -40 -72 8 -58 -16 -88 -71 -88 -30 0 -46
-7 -71 -31 -18 -17 -32 -40 -32 -51 0 -36 -43 -66 -106 -73 -148 -16 -224 -42
-224 -75 0 -11 -11 -64 -25 -117 -15 -55 -28 -139 -31 -193 -4 -75 -10 -106
-32 -152 -27 -58 -62 -84 -97 -73 -51 16 -49 13 -30 42 17 25 17 27 -1 40 -24
17 -104 20 -195 7 -41 -6 -57 13 -39 46 7 13 27 19 86 25 51 5 80 3 87 -4 6
-6 28 -11 50 -11 36 0 39 3 59 46 50 113 43 129 -53 122 l-60 -4 6 61 c11 98
-21 185 -67 185 -14 0 -18 5 -13 19 3 10 -8 72 -25 137 -31 117 -100 266 -150
324 -11 12 -20 27 -20 32 0 16 30 8 42 -12 16 -26 68 -26 99 -1 23 19 23 19
21 239 -1 125 1 223 7 226 16 10 27 -18 29 -79 5 -106 31 -312 43 -338 16 -35
26 -37 105 -25 89 13 116 26 126 63 13 43 -1 282 -18 323 -19 47 -18 64 7 91
12 12 18 25 14 29 -12 13 -240 6 -273 -7 -27 -11 -38 -11 -73 3 -47 19 -159
13 -197 -11 -22 -14 -23 -18 -17 -91 3 -42 12 -111 20 -152 7 -41 13 -89 13
-107 -1 -29 -3 -30 -22 -18 -26 17 -157 34 -182 24 -32 -13 -71 -10 -84 6 -6
8 -15 14 -18 13 -4 -1 -14 2 -23 6 -8 4 -42 0 -75 -7 -35 -8 -70 -11 -87 -6
-36 10 -58 2 -50 -19 5 -11 2 -14 -10 -9 -8 3 -21 -1 -27 -9 -7 -8 -9 -14 -4
-14 5 -1 -11 -9 -36 -19 -41 -16 -150 -87 -150 -98 0 -2 5 -1 10 2 6 3 10 1
10 -4 0 -6 -4 -11 -10 -11 -5 0 -10 -9 -10 -20 0 -11 -4 -20 -10 -20 -5 0 -10
-3 -9 -7 3 -21 -15 -51 -40 -66 -15 -9 -28 -22 -29 -29 -2 -27 -8 -46 -19 -59
-34 -44 -52 -212 -30 -287 17 -55 12 -128 -9 -149 -10 -11 -13 -8 -16 14 -2
21 -15 32 -56 54 -29 15 -59 32 -67 39 -21 17 -176 26 -203 11 -30 -16 -116
-4 -143 20 -12 11 -31 19 -43 19 -20 1 -20 1 -3 14 9 7 50 16 90 20 121 11
251 38 271 55 24 21 18 75 -24 201 -37 111 -41 117 -86 129 -39 11 -316 -4
-351 -19 -30 -12 -31 -70 -3 -125 12 -23 20 -61 21 -90 0 -27 4 -76 8 -107 4
-31 3 -54 -1 -52 -5 3 -21 3 -36 -1 -21 -4 -31 -14 -38 -38 -12 -43 -44 -47
-73 -11 -32 41 -28 56 17 52 36 -3 37 -2 40 32 2 25 -4 44 -21 64 l-24 30 -32
-23 c-31 -22 -33 -23 -47 -5 -14 19 -14 38 2 185 6 54 5 56 -23 67 -30 12
-312 10 -332 -2 -6 -4 -11 -24 -11 -45 0 -44 -27 -74 -62 -69 -21 3 -23 7 -20
46 3 38 1 42 -20 42 -41 -1 -108 -37 -108 -59 0 -23 -78 -83 -132 -100 -68
-22 -77 8 -22 75 36 43 36 45 19 64 -13 14 -31 20 -60 20 -29 0 -47 6 -60 19
-15 18 -16 25 -4 70 11 45 11 52 -5 70 -10 11 -21 46 -26 83 -4 35 -13 86 -20
113 -7 28 -13 93 -15 145 -2 52 -6 125 -9 162 -6 64 -5 68 18 83 17 11 35 15
55 10 36 -8 81 -41 81 -60 0 -17 38 -45 62 -45 9 0 33 14 51 30 19 17 41 30
49 30 8 0 29 -13 46 -30 l32 -30 172 0 c95 1 193 6 218 12 25 6 82 10 127 9
91 -3 116 6 138 49 21 41 58 40 115 -6 44 -35 46 -35 110 -29 36 3 85 5 110 4
72 -2 446 0 498 3 26 1 54 1 62 -1 8 -2 41 -3 73 -2 48 1 62 5 83 27 25 24 26
28 19 115 -9 116 1 145 59 160 22 6 66 9 96 6 30 -3 91 0 135 7 109 18 165 19
166 4z m-3052 -261 c6 -8 13 -54 17 -103 8 -117 19 -159 50 -183 14 -11 39
-48 56 -83 17 -35 39 -74 48 -88 11 -16 15 -38 13 -62 -2 -20 1 -39 6 -43 8
-4 6 -11 -4 -21 -8 -9 -15 -23 -15 -33 0 -10 -7 -18 -15 -18 -8 0 -15 6 -15
13 0 7 -9 19 -20 27 -24 16 -43 73 -34 100 4 12 -6 29 -32 54 -24 22 -40 31
-42 23 -3 -7 -15 -1 -32 17 -47 47 -55 51 -116 54 -113 6 -164 0 -164 -17 0
-13 -9 -15 -45 -12 -25 2 -45 0 -45 -4 0 -5 -7 -8 -16 -8 -9 0 -14 -7 -12 -17
3 -13 12 -17 31 -15 l28 3 -21 -21 c-19 -19 -28 -46 -12 -36 14 9 0 -58 -17
-79 -9 -12 -25 -19 -38 -17 -18 3 -24 -3 -31 -29 -10 -41 -32 -51 -32 -15 0
14 -4 26 -9 26 -17 0 -23 -40 -9 -57 11 -14 11 -16 -2 -8 -30 18 -59 48 -54
57 3 4 0 8 -5 8 -6 0 -11 9 -11 20 0 18 -11 25 -34 21 -13 -3 -36 20 -30 30 3
5 0 9 -5 9 -37 0 25 97 80 126 16 8 27 19 24 24 -4 6 3 10 13 10 11 0 22 9 25
20 3 14 14 20 31 20 14 0 26 5 26 10 0 6 16 10 35 10 19 0 35 4 35 10 0 5 7 7
15 4 19 -8 31 22 15 41 -8 10 -18 11 -36 4 -14 -5 -38 -9 -53 -9 -15 0 -37 -9
-49 -20 -12 -11 -25 -20 -31 -20 -5 0 -23 -13 -41 -30 -18 -16 -36 -30 -40
-30 -13 0 -66 -53 -73 -73 -4 -10 -11 -16 -16 -13 -5 3 -7 -4 -3 -16 3 -14 1
-19 -6 -14 -12 7 -27 -28 -18 -43 4 -5 1 -12 -4 -14 -6 -3 -5 -4 2 -3 7 2 12
10 12 19 -1 9 2 14 7 11 5 -3 9 0 9 6 0 6 5 8 11 4 7 -4 7 -9 1 -13 -22 -14
-23 -51 -3 -77 12 -15 21 -37 21 -50 0 -15 6 -24 15 -24 9 0 15 -9 15 -21 0
-11 7 -27 15 -35 8 -9 15 -24 15 -35 0 -10 5 -19 10 -19 6 0 10 -9 10 -21 0
-13 -11 -25 -34 -34 -39 -17 -52 -31 -34 -38 19 -6 5 -17 -26 -19 -19 -2 -31
-10 -37 -25 -12 -32 -1 -55 22 -48 10 3 28 1 40 -6 22 -11 22 -12 2 -28 -28
-22 -64 -77 -56 -85 3 -3 -5 -6 -18 -6 -18 0 -20 -3 -10 -9 11 -7 9 -10 -10
-14 -15 -3 -9 -5 17 -6 30 -1 44 4 48 15 3 8 10 13 16 9 5 -3 19 -1 31 6 17 9
20 8 13 -3 -6 -11 -5 -11 8 0 13 10 17 10 21 0 4 -10 7 -11 18 0 18 16 30 15
23 -3 -4 -9 -26 -17 -55 -21 -48 -6 -59 -23 -16 -25 17 -1 15 -3 -10 -11 -53
-17 -38 -30 27 -24 41 3 60 1 60 -7 0 -6 18 7 40 28 22 21 40 36 40 33 0 -4 3
-14 7 -24 4 -11 3 -15 -4 -11 -19 12 -43 -4 -43 -28 0 -16 -9 -26 -32 -36 -18
-7 -42 -24 -54 -36 l-21 -22 -22 20 c-29 27 -41 16 -40 -34 1 -55 -3 -77 -11
-72 -4 2 -21 -8 -38 -23 -30 -27 -30 -28 -18 -73 12 -47 11 -73 -4 -64 -5 3
-12 -4 -15 -15 -9 -29 -37 -21 -54 14 -11 23 -11 36 -2 61 6 17 11 39 11 47 0
9 4 18 9 20 4 2 10 35 13 75 5 65 3 72 -14 76 -16 5 -19 13 -17 41 4 43 -14
51 -22 10 l-7 -29 -1 32 c0 17 -8 38 -16 47 -18 18 -20 48 -2 44 14 -3 17 2
17 35 l-1 22 -13 -24 c-13 -23 -14 -23 -22 -5 -13 28 -11 340 3 404 6 31 18
71 27 90 11 23 14 26 10 10 -3 -14 -8 -41 -10 -60 -3 -26 0 -21 11 17 25 89
54 139 122 210 37 37 66 71 65 76 -1 4 1 6 5 5 5 -2 9 0 11 4 1 4 14 19 27 34
13 14 27 35 30 45 4 11 15 19 26 19 10 0 19 5 19 12 0 6 3 8 7 5 3 -4 12 -2
20 4 7 6 25 9 41 6 15 -3 45 1 67 9 22 7 51 14 65 15 21 0 18 3 -15 15 -36 14
-46 14 -95 -1 -30 -9 -70 -23 -88 -31 -55 -25 -86 -2 -66 50 4 10 18 16 36 16
16 0 55 14 86 31 70 38 194 60 335 58 54 -1 101 1 104 5 11 11 40 7 52 -7z
m-615 -13 c9 -4 16 -18 16 -34 0 -26 -4 -29 -44 -35 -55 -9 -76 -5 -90 18 -22
35 63 72 118 51z m6601 -55 c0 -9 -12 -14 -37 -15 -26 -1 -35 3 -31 12 9 24
68 27 68 3z m1480 -204 c7 -110 8 -166 3 -170 -2 -1 -37 2 -78 7 -41 6 -239
11 -440 12 -201 1 -371 5 -378 10 -7 4 -10 17 -6 32 5 21 -1 33 -35 65 -32 31
-41 47 -41 74 0 42 27 60 74 50 17 -3 103 -10 191 -15 88 -5 187 -12 220 -15
53 -5 68 -2 130 28 68 32 71 33 211 32 l141 0 8 -110z m-1485 -16 c0 -5 -4 -9
-10 -9 -5 0 -10 7 -10 16 0 8 5 12 10 9 6 -3 10 -10 10 -16z m277 -5 c-3 -3
-12 -4 -19 -1 -8 3 -5 6 6 6 11 1 17 -2 13 -5z m-1737 -47 c0 -18 -2 -19 -10
-7 -13 20 -13 43 0 35 6 -3 10 -16 10 -28z m4391 -17 c10 -6 19 -18 19 -28 -1
-14 -5 -12 -22 8 -13 15 -23 20 -25 13 -5 -13 -33 -6 -33 8 0 12 37 11 61 -1z
m-8705 -68 c-4 -3 -14 2 -24 12 -16 18 -16 18 6 6 13 -6 21 -14 18 -18z m5660
-8 c-5 -13 -10 -14 -18 -6 -6 6 -8 18 -4 28 5 13 10 14 18 6 6 -6 8 -18 4 -28z
m1618 -66 c4 -16 1 -30 -6 -34 -6 -4 -8 -3 -4 4 3 6 2 13 -4 17 -5 3 -10 18
-10 33 0 31 15 19 24 -20z m2135 13 c26 -7 50 -36 39 -47 -4 -3 -44 -12 -90
-20 -196 -33 -315 -57 -338 -69 -14 -7 -36 -15 -50 -17 -20 -2 -26 2 -28 20
-4 23 7 31 49 36 36 5 59 17 59 31 0 7 8 22 18 34 13 17 32 23 92 27 41 4 77
8 79 10 7 6 144 3 170 -5z m-9351 -26 c-3 -3 -9 2 -12 12 -6 14 -5 15 5 6 7
-7 10 -15 7 -18z m2887 -35 c10 -11 15 -23 12 -26 -9 -10 -59 25 -52 36 9 15
20 12 40 -10z m-2825 -91 c0 -22 -18 -7 -23 20 -3 16 -12 35 -20 42 -7 8 -12
20 -9 28 4 13 52 -69 52 -90z m7240 66 c0 -27 -22 -33 -50 -15 -13 9 -12 12 4
25 29 22 46 18 46 -10z m-182 -92 c2 -18 -6 -62 -17 -98 l-19 -66 26 -10 c61
-24 78 -36 99 -74 27 -48 31 -105 7 -105 -9 0 -48 16 -87 35 -39 19 -82 35
-96 35 -51 0 -233 40 -271 60 -79 40 -33 76 100 79 47 1 89 7 95 12 5 5 9 34
10 64 0 30 5 59 10 64 17 17 88 40 115 38 20 -2 26 -8 28 -34z m181 1 c10 -9
-6 -11 -36 -7 -18 3 -30 9 -27 14 5 8 52 2 63 -7z m-7242 -26 c-3 -8 -6 -5 -6
6 -1 11 2 17 5 13 3 -3 4 -12 1 -19z m9655 13 c22 -1 58 -40 58 -62 0 -26 -18
-34 -75 -34 -27 0 -59 -4 -71 -8 -32 -11 -67 22 -67 62 0 43 16 52 83 46 30
-2 63 -4 72 -4z m-211 -27 c12 -34 -20 -89 -51 -89 -32 0 -37 29 -16 80 12 28
20 36 37 33 12 -2 25 -13 30 -24z m-4755 -11 c12 -17 13 -17 19 0 10 23 32 21
46 -5 10 -19 12 -19 21 -5 9 18 48 24 48 8 0 -5 3 -22 6 -38 5 -27 3 -31 -21
-35 -18 -4 -28 -1 -32 9 -5 13 -7 13 -15 -1 -11 -20 -42 -21 -57 -2 -7 8 -21
12 -31 9 -12 -3 -20 0 -20 6 0 7 -5 9 -10 6 -6 -4 -7 -11 -4 -17 4 -6 2 -8 -4
-4 -12 7 -13 64 0 72 4 3 8 0 8 -5 0 -6 5 -11 10 -11 6 0 10 7 10 15 0 20 10
19 26 -2z m2512 -15 c16 -44 9 -45 -11 -3 -9 19 -13 35 -9 35 4 0 13 -14 20
-32z m-7149 -33 c0 -5 -6 1 -14 15 -8 14 -14 30 -14 35 0 6 6 -1 14 -15 8 -14
14 -29 14 -35z m4821 20 c0 -8 6 -15 13 -16 6 0 3 -4 -8 -8 -14 -6 -22 -4 -26
8 -4 9 -5 19 -2 24 7 13 23 8 23 -8z m37 -17 c-3 -7 -5 -2 -5 12 0 14 2 19 5
13 2 -7 2 -19 0 -25z m1476 -4 c35 -13 62 -99 35 -109 -13 -5 -458 -18 -605
-19 -63 0 -87 4 -101 17 -10 9 -27 17 -38 17 -63 1 -49 54 17 65 22 4 64 16
92 26 48 18 72 20 317 15 146 -3 274 -8 283 -12z m-900 -37 c16 -49 5 -58 -60
-51 -32 4 -59 7 -59 8 -1 1 -5 19 -8 41 l-7 40 62 -5 c57 -5 63 -7 72 -33z
m-778 -15 c-3 -3 -11 0 -18 7 -9 10 -8 11 6 5 10 -3 15 -9 12 -12z m-4909 -9
c17 -23 17 -34 0 -27 -8 3 -16 14 -19 25 -6 24 2 24 19 2z m5029 7 c-11 -5
-40 -8 -65 -8 l-45 1 50 7 c72 10 83 10 60 0z m2618 3 c-7 -2 -21 -2 -30 0
-10 3 -4 5 12 5 17 0 24 -2 18 -5z m-7596 -25 c-3 -8 -6 -5 -6 6 -1 11 2 17 5
13 3 -3 4 -12 1 -19z m1057 -8 c35 -13 41 -47 17 -102 -24 -57 -31 -61 -70
-42 -22 11 -33 26 -41 55 -14 53 -10 71 20 86 30 15 41 16 74 3z m1140 -61
c-2 -45 -11 -100 -22 -128 -11 -32 -3 -81 14 -81 18 0 40 -53 25 -58 -6 -2
-11 -10 -11 -18 0 -8 -7 -26 -16 -40 -22 -33 -15 -170 10 -208 16 -25 16 -26
-2 -26 -15 0 -19 -8 -20 -35 -1 -20 -4 -40 -7 -45 -8 -13 14 -62 25 -55 5 3
10 -1 10 -10 0 -9 -4 -13 -10 -10 -7 4 -7 -3 0 -20 6 -15 10 -41 10 -59 0 -28
-4 -34 -34 -43 -38 -12 -107 -4 -113 13 -6 17 55 64 82 64 29 0 40 15 22 31
-7 7 -11 24 -9 38 2 15 -8 47 -22 74 -15 28 -26 64 -26 87 0 21 -5 42 -11 45
-7 5 -4 14 8 27 15 17 18 35 15 118 -2 79 1 102 14 114 10 10 11 16 3 16 -8 0
-9 10 -5 33 4 17 11 65 16 105 10 79 25 115 43 109 7 -2 11 -19 11 -38z m7126
12 l215 -6 85 -43 c118 -60 149 -98 120 -152 -13 -23 -16 -107 -6 -137 8 -26
-8 -35 -81 -48 -59 -9 -105 15 -143 76 -22 36 -43 55 -77 72 -37 17 -49 28
-51 49 -2 15 -9 31 -15 36 -20 15 -145 31 -324 42 -92 6 -184 13 -203 16 -80
12 -80 12 -80 49 0 27 3 33 16 28 8 -3 43 2 77 10 88 23 113 26 187 20 36 -3
162 -8 280 -12z m-9325 -11 c3 -5 1 -10 -4 -10 -6 0 -11 5 -11 10 0 6 2 10 4
10 3 0 8 -4 11 -10z m255 -11 c0 -5 -4 -9 -10 -9 -5 0 -10 7 -10 16 0 8 5 12
10 9 6 -3 10 -10 10 -16z m4000 7 c0 -2 -7 -6 -15 -10 -8 -3 -15 -1 -15 4 0 6
7 10 15 10 8 0 15 -2 15 -4z m-4203 -31 c0 -18 -28 -16 -35 3 -2 7 5 12 16 12
10 0 19 -7 19 -15z m753 -40 c-7 -14 -19 -25 -26 -25 -7 0 -15 -6 -17 -12 -3
-8 -6 -5 -6 5 -1 21 17 59 33 69 20 13 30 -10 16 -37z m3334 15 c11 -11 -16
-64 -35 -68 -31 -6 -69 16 -69 41 0 35 20 49 60 42 19 -4 39 -10 44 -15z
m-4074 -20 c0 -5 -4 -10 -9 -10 -6 0 -13 5 -16 10 -3 6 1 10 9 10 9 0 16 -4
16 -10z m32 -64 c9 -13 41 21 33 36 -4 7 1 4 9 -6 9 -11 16 -26 16 -33 0 -7 4
-21 10 -31 14 -26 29 -112 20 -117 -11 -7 -41 35 -34 47 3 4 1 8 -4 8 -6 0 -8
10 -5 23 4 18 3 19 -6 7 -10 -13 -12 -13 -21 0 -7 11 -8 6 -4 -16 4 -19 1 -34
-5 -38 -7 -4 -11 1 -11 13 0 11 -10 37 -22 58 l-22 38 22 -19 c34 -29 35 -14
2 25 -16 19 -29 38 -30 43 0 9 38 -20 52 -38z m2268 14 c0 -5 -4 -10 -10 -10
-5 0 -10 5 -10 10 0 6 5 10 10 10 6 0 10 -4 10 -10z m-1597 -37 c-4 -9 -9 -9
-20 2 -18 19 -8 40 11 22 8 -6 11 -17 9 -24z m1635 12 c-3 -3 -9 2 -12 12 -6
14 -5 15 5 6 7 -7 10 -15 7 -18z m-1362 -31 c-4 -9 -1 -23 5 -30 9 -11 8 -14
-2 -14 -11 0 -11 -2 1 -10 25 -15 -80 0 -132 20 -32 12 -62 16 -94 12 -37 -4
-46 -2 -42 9 4 14 55 20 212 26 50 2 57 1 52 -13z m5884 -65 c24 -1 24 -1 -5
-11 -16 -6 -36 -16 -44 -22 -12 -9 -13 -8 -8 7 3 9 2 17 -3 17 -6 0 -10 5 -10
11 0 7 9 9 23 5 12 -3 33 -6 47 -7z m170 -29 c58 -10 92 -19 76 -19 -47 -1
-196 22 -196 31 0 10 -3 11 120 -12z m-8110 -85 c-7 -38 -8 -36 -8 20 -1 40 2
53 7 40 5 -11 5 -38 1 -60z m2651 60 c78 -28 119 -107 63 -121 -20 -5 -46 3
-103 32 -71 36 -81 39 -164 38 -86 0 -88 0 -65 18 13 10 30 18 39 18 8 0 19 4
25 9 9 9 52 16 125 19 20 1 56 -5 80 -13z m-2141 -62 c0 -9 -7 -12 -17 -9 -10
2 -33 7 -51 11 -18 4 -30 10 -27 15 3 5 19 5 35 0 29 -8 30 -7 30 23 l0 32 15
-29 c8 -15 15 -35 15 -43z m7810 56 c11 -7 4 -8 -25 -3 -50 8 -58 14 -19 14
16 0 36 -5 44 -11z m80 6 c0 -2 -10 -10 -22 -16 -21 -11 -22 -11 -9 4 13 16
31 23 31 12z m2484 -184 c19 -21 15 -51 -9 -71 -11 -9 -22 -8 -49 5 -53 25
-61 40 -37 64 26 26 72 27 95 2z m-7609 -31 c3 -5 1 -10 -4 -10 -6 0 -11 5
-11 10 0 6 2 10 4 10 3 0 8 -4 11 -10z m7269 -31 c14 -12 -43 -31 -75 -24 -15
3 -34 14 -43 24 -15 16 -12 17 47 13 34 -2 66 -8 71 -13z m-8064 -29 c10 0 20
6 22 12 4 10 10 10 31 1 31 -15 37 -55 11 -81 -15 -15 -14 -18 15 -42 17 -15
31 -33 30 -41 -1 -26 -54 -114 -72 -117 -9 -2 -42 9 -72 23 -45 23 -55 32 -55
53 0 14 12 38 26 53 29 30 25 49 -9 49 -54 1 -74 51 -34 87 41 38 60 43 75 22
7 -10 22 -19 32 -19z m803 33 c-7 -2 -19 -2 -25 0 -7 3 -2 5 12 5 14 0 19 -2
13 -5z m304 -20 c1 -10 4 -41 8 -69 4 -41 3 -53 -9 -57 -9 -4 -18 -2 -22 4 -3
5 -13 7 -22 5 -10 -3 -24 -1 -32 5 -12 8 -10 9 8 4 12 -3 22 -2 22 3 0 5 9 19
20 32 11 13 17 26 13 29 -7 5 -9 31 -4 54 2 14 17 7 18 -10z m-241 -28 c19
-30 11 -45 -24 -45 -24 1 -25 2 -9 11 18 10 18 12 -2 26 -26 18 -27 33 -1 33
11 0 27 -11 36 -25z m-2770 -14 c0 -11 -4 -17 -8 -15 -4 3 -8 12 -8 20 0 8 4
14 8 14 4 0 8 -9 8 -19z m2549 -31 c-3 -5 1 -10 7 -13 10 -3 10 -7 0 -19 -9
-11 -10 -18 -2 -23 5 -3 10 -11 10 -16 0 -16 -29 17 -38 43 -5 13 -7 31 -4 41
3 14 7 16 18 6 7 -6 12 -15 9 -19z m991 -146 c-14 -26 -15 -27 -16 -7 0 33 11
56 22 45 6 -6 4 -20 -6 -38z m-3912 -46 c13 -9 10 -96 -4 -113 -8 -9 -6 -18 6
-30 14 -14 15 -18 4 -25 -8 -5 -18 -6 -22 -4 -4 3 -5 -2 -2 -10 3 -9 10 -16
15 -16 5 0 9 -7 9 -15 0 -24 -14 -17 -28 13 -9 21 -10 58 -5 133 3 57 9 97 11
89 3 -8 10 -18 16 -22z m2023 -11 c13 -13 12 -16 -13 -20 -84 -17 -150 -18
-169 -3 -19 14 -19 15 10 21 17 4 41 11 55 16 34 12 99 4 117 -14z m-447 -2
c-11 -13 -8 -17 18 -26 20 -7 29 -15 25 -25 -7 -18 -73 -19 -97 -1 -17 12 -16
14 8 25 14 6 26 18 26 27 0 8 7 15 16 15 14 0 14 -3 4 -15z m1945 5 c3 -5 1
-10 -4 -10 -6 0 -11 5 -11 10 0 6 2 10 4 10 3 0 8 -4 11 -10z m-157 -13 c7 -5
12 -4 12 2 0 14 33 14 47 0 8 -8 13 -8 17 0 4 6 16 11 27 11 13 0 19 -7 19
-24 0 -20 -6 -24 -40 -29 -78 -10 -150 8 -150 38 0 14 47 15 68 2z m-3125 -43
c-3 -8 -10 -14 -15 -14 -6 0 -8 6 -5 14 3 8 1 16 -5 18 -7 3 -8 10 -3 18 6 10
11 10 21 -4 7 -10 10 -24 7 -32z m27 -18 c0 -3 -4 -8 -10 -11 -5 -3 -10 -1
-10 4 0 6 5 11 10 11 6 0 10 -2 10 -4z m755 -76 c27 -30 12 -34 -15 -5 -13 14
-19 25 -13 25 5 0 18 -9 28 -20z m531 -1 c10 -17 -13 -36 -27 -22 -12 12 -4
33 11 33 5 0 12 -5 16 -11z m1601 -101 c-3 -8 -6 -5 -6 6 -1 11 2 17 5 13 3
-3 4 -12 1 -19z m10 -55 c-3 -10 -5 -4 -5 12 0 17 2 24 5 18 2 -7 2 -21 0 -30z
m226 30 c2 -5 -4 -16 -15 -25 -10 -10 -18 -14 -18 -9 0 6 5 13 11 17 8 4 7 9
-2 15 -11 7 -10 9 3 9 9 0 19 -3 21 -7z m-209 -131 c4 -47 3 -50 -11 -37 -11
11 -13 26 -8 56 9 51 13 47 19 -19z m-442 28 c21 -1 21 -2 5 -11 -10 -6 -21
-9 -24 -6 -2 3 -17 1 -33 -3 -36 -10 -43 -4 -22 20 11 14 20 16 33 9 10 -5 28
-9 41 -9z m-3272 -63 c-19 -13 -62 -38 -95 -56 -33 -18 -67 -39 -75 -46 -25
-22 -265 -137 -246 -118 11 12 429 241 441 242 5 1 -6 -10 -25 -22z m774 -75
l31 -33 -42 3 c-29 2 -38 6 -32 14 6 7 2 17 -11 29 -11 10 -20 15 -20 11 0 -4
-6 -1 -13 6 -19 18 -18 48 1 40 11 -4 13 -1 7 9 -4 8 5 1 20 -16 16 -16 42
-45 59 -63z m1593 72 c-3 -3 -12 -4 -19 -1 -8 3 -5 6 6 6 11 1 17 -2 13 -5z
m-1474 -144 c9 -11 14 -20 11 -20 -13 0 -44 21 -44 30 0 16 14 11 33 -10z
m5772 -114 c-10 -39 -33 -103 -52 -142 -33 -70 -103 -154 -127 -154 -19 0 -36
151 -23 201 13 51 93 140 161 180 51 28 51 29 54 7 2 -12 -4 -53 -13 -92z
m-262 -60 c-4 -29 2 -68 16 -114 24 -79 24 -82 13 -82 -17 0 -72 107 -72 140
0 30 31 100 44 100 2 0 1 -20 -1 -44z m2766 -241 c-16 -36 -20 -60 -16 -94 5
-46 5 -46 -8 -16 -8 17 -14 49 -15 73 0 34 6 48 27 68 14 13 28 23 30 21 2 -2
-6 -26 -18 -52z m239 -71 c7 -91 -10 -114 -82 -114 -40 0 -62 -6 -90 -25 -20
-14 -38 -25 -40 -25 -1 0 -9 19 -16 43 -20 62 -14 98 21 130 28 26 34 27 88
21 64 -7 91 8 91 49 1 47 22 -15 28 -79z m-2882 7 c66 -31 144 -94 144 -117 0
-8 7 -14 15 -14 8 0 17 -11 21 -25 3 -14 10 -22 15 -19 5 3 9 0 9 -5 0 -20 4
-26 26 -44 15 -11 21 -24 17 -34 -4 -11 -2 -14 5 -9 6 3 16 -3 22 -14 10 -18
-2 -31 -13 -12 -2 4 -2 1 0 -6 1 -8 3 -20 3 -28 0 -8 8 -14 18 -14 13 -1 11
-4 -8 -14 -31 -18 -68 -3 -50 19 9 11 7 15 -14 21 -23 5 -25 9 -14 22 11 13
10 15 -4 9 -10 -3 -17 -3 -17 1 3 20 -15 52 -29 52 -8 0 -13 3 -9 6 3 3 -10
19 -29 36 -19 17 -34 36 -34 44 0 8 -6 11 -15 8 -11 -5 -13 -2 -8 12 4 11 3
15 -5 11 -12 -8 -82 30 -95 50 -4 7 -13 13 -18 13 -6 0 -7 -4 -4 -10 9 -14 -8
-13 -23 2 -15 15 -184 13 -213 -3 -16 -8 -20 -8 -14 1 10 16 -36 -10 -51 -29
-6 -8 -16 -11 -22 -7 -7 4 -12 2 -12 -3 0 -6 -6 -11 -14 -11 -8 0 -17 -7 -20
-16 -3 -8 -11 -12 -17 -9 -6 4 -9 0 -7 -11 2 -10 -3 -19 -9 -20 -7 -1 -19 -2
-25 -3 -10 -1 -10 -3 1 -10 9 -6 10 -11 2 -15 -6 -4 -22 0 -35 9 -14 9 -31 13
-38 9 -15 -9 25 48 46 65 8 7 19 10 24 8 4 -3 14 4 22 16 12 21 12 21 -6 7
-12 -9 -10 -4 5 12 13 15 27 25 31 23 5 -3 10 2 14 10 3 8 12 15 21 15 8 0 15
4 15 9 0 15 100 44 175 50 89 8 144 -2 221 -38z m-31 -191 c-10 -11 -23 -20
-29 -20 -6 1 0 10 13 20 30 26 39 26 16 0z m-151 -5 c8 -8 21 -15 30 -15 19 0
66 -68 66 -96 0 -27 -17 -34 -85 -34 -78 0 -105 13 -105 49 0 16 5 33 10 36 6
3 10 15 10 25 0 17 34 50 52 50 3 0 13 -7 22 -15z m2801 -15 c52 -29 52 -29
35 -41 -11 -8 -10 -9 8 -4 20 6 27 -1 24 -27 -1 -3 5 -12 13 -18 8 -7 15 -19
15 -26 0 -8 5 -14 10 -14 6 0 8 -12 4 -27 -4 -19 -3 -24 4 -15 7 11 10 11 15
-2 4 -9 6 -19 6 -22 0 -4 5 -10 12 -15 7 -4 12 -21 12 -38 0 -16 4 -28 9 -25
4 3 7 -10 6 -29 -2 -21 -7 -33 -15 -30 -13 5 -26 50 -18 63 3 6 -1 7 -9 4 -10
-4 -17 2 -21 19 -4 14 -15 33 -26 43 -10 9 -16 21 -12 27 3 5 2 7 -4 4 -13 -8
-76 57 -66 68 5 4 0 5 -9 2 -11 -4 -18 -2 -18 6 0 12 -33 16 -153 21 -68 2
-72 0 -91 -44 -8 -19 -35 -57 -60 -85 -25 -27 -49 -58 -52 -68 -3 -9 -9 -15
-14 -12 -5 3 -7 -8 -5 -25 3 -24 0 -30 -15 -30 -17 0 -18 3 -9 28 10 25 14 43
18 81 1 11 4 11 18 0 15 -13 15 -12 3 7 -11 18 -11 27 1 55 16 41 76 109 95
109 8 0 14 11 14 26 0 20 4 25 16 20 8 -3 12 -2 9 4 -3 6 -5 10 -3 10 2 0 21
7 43 15 56 22 159 14 210 -15z m-3162 7 c-3 -5 1 -13 8 -18 9 -6 10 -12 4 -16
-5 -5 -10 -12 -10 -18 -1 -17 -28 -65 -36 -65 -5 0 -5 -8 -2 -17 6 -15 4 -16
-9 -5 -9 7 -18 24 -20 37 -4 21 -2 23 13 15 28 -16 33 -12 9 8 l-21 17 20 27
c12 14 21 30 21 35 0 6 7 10 15 10 8 0 11 -5 8 -10z m-1623 -92 c0 -70 -27
-164 -57 -198 -25 -27 -143 -110 -149 -105 -10 11 -12 67 -3 113 13 69 53 150
91 186 31 29 94 68 111 69 4 0 7 -29 7 -65z m1588 -71 c10 -5 -13 -34 -27 -34
-14 0 -17 7 -13 30 4 26 7 29 21 18 9 -7 17 -13 19 -14z m-1842 -110 l5 -99
-20 25 c-39 47 -44 87 -19 169 16 51 27 20 34 -95z m2714 87 c0 -28 -19 -36
-38 -17 -15 15 -15 18 -2 26 24 15 40 12 40 -9z m24 -56 c5 -14 -6 -19 -41
-18 -7 1 -13 -3 -13 -8 0 -15 20 -20 41 -9 26 15 29 12 33 -38 3 -40 2 -42
-24 -42 -17 0 -33 -8 -43 -22 -14 -21 -15 -18 -12 52 2 41 4 81 4 88 1 17 48
15 55 -3z m2207 -17 c7 -13 16 -26 22 -29 15 -10 26 -90 16 -116 -5 -13 -15
-23 -23 -23 -24 0 -74 49 -86 84 -23 70 40 143 71 84z m-7435 -34 c17 -118
-28 -246 -118 -330 l-52 -48 -14 34 c-22 55 -12 183 20 245 26 49 68 95 118
128 35 24 38 22 46 -29z m6834 5 c14 -11 20 -18 15 -16 -6 3 -45 -12 -88 -33
-83 -40 -110 -44 -115 -16 -3 11 8 21 35 32 63 25 83 37 77 46 -11 17 52 7 76
-13z m724 -4 c-10 -8 -26 -14 -34 -14 -9 0 -4 6 10 14 33 19 49 19 24 0z
m-3270 -67 c-5 -8 -2 -9 10 -5 9 4 15 3 13 -1 -3 -4 1 -13 8 -19 11 -10 15
-10 18 0 2 6 2 1 0 -13 -3 -14 -9 -27 -14 -30 -5 -3 -7 -16 -4 -29 4 -20 1
-22 -18 -17 -12 3 -25 6 -29 6 -12 0 -9 20 3 20 14 0 43 29 35 37 -3 3 -14 0
-23 -8 -15 -11 -16 -11 -5 1 6 8 12 21 12 30 0 13 -1 13 -10 0 -8 -12 -10 -11
-10 6 0 11 3 24 7 27 10 11 15 8 7 -5z m3441 -24 c0 -10 4 -22 9 -26 6 -4 4
-13 -3 -22 -11 -13 -11 -17 2 -22 19 -7 28 -29 21 -49 -6 -15 -33 -21 -35 -7
0 4 -2 16 -4 27 -2 11 -6 37 -9 57 -3 21 -6 41 -7 45 -3 18 2 24 14 21 6 -3
12 -13 12 -24z m-3285 5 c0 -6 -8 -8 -19 -4 -14 4 -23 0 -31 -15 -13 -24 -4
-44 16 -36 8 3 14 1 14 -4 0 -14 -33 -13 -47 1 -12 12 -8 34 10 57 12 15 57
16 57 1z m88 -21 c4 -34 -32 -62 -60 -47 -22 12 -23 28 -2 57 22 32 58 26 62
-10z m90 20 c7 -7 12 -18 12 -25 0 -21 -38 -53 -64 -53 -24 0 -24 2 -15 33 6
17 12 38 15 45 4 15 36 16 52 0z m66 -13 c-4 -8 -1 -15 6 -15 6 0 8 -5 5 -10
-4 -6 -11 -8 -16 -5 -5 4 -9 -1 -9 -10 0 -11 5 -15 15 -11 8 3 15 1 15 -4 0
-6 -13 -10 -29 -10 -28 0 -28 0 -18 40 6 22 17 40 24 40 7 0 10 -7 7 -15z m36
5 c0 -5 -2 -10 -4 -10 -3 0 -8 5 -11 10 -3 6 -1 10 4 10 6 0 11 -4 11 -10z
m90 -1 c0 -6 -7 -8 -16 -5 -21 8 -44 -11 -44 -36 0 -17 5 -19 28 -14 25 6 26
5 8 -8 -14 -11 -24 -12 -37 -5 -23 12 -24 37 -2 61 18 20 63 25 63 7z m72 -39
c2 -28 0 -40 -9 -40 -7 0 -13 7 -13 16 0 9 -6 14 -12 11 -7 -2 -12 -10 -10
-16 1 -6 -5 -11 -13 -11 -14 0 -14 4 1 33 35 68 50 70 56 7z m79 23 l11 -28
14 28 c22 41 35 33 32 -18 -3 -48 -14 -59 -21 -22 l-4 22 -8 -22 c-4 -13 -11
-23 -15 -23 -4 0 -12 10 -18 23 l-11 22 0 -22 c-1 -24 -21 -33 -21 -9 0 30 13
76 21 76 5 0 14 -12 20 -27z m2126 3 c-7 -14 -13 -23 -15 -21 -7 6 9 45 18 45
4 0 3 -11 -3 -24z m-1969 -9 c3 -12 -4 -20 -17 -24 -12 -3 -21 -13 -21 -24 0
-11 -4 -19 -10 -19 -5 0 -10 21 -10 46 0 44 1 45 27 42 17 -2 29 -10 31 -21z
m-5369 -107 c27 -121 27 -128 0 -104 -25 22 -58 90 -59 119 0 34 21 98 29 89
5 -5 18 -52 30 -104z m2693 88 c3 -7 27 -13 59 -15 30 -1 63 -4 74 -7 11 -2
24 -5 28 -5 5 -1 5 -6 1 -13 -5 -8 -2 -9 9 -5 21 8 23 -22 5 -43 -11 -12 -10
-12 5 -1 9 7 17 20 17 27 0 15 16 19 22 7 2 -5 20 -17 41 -27 26 -14 34 -22
25 -28 -9 -5 -7 -8 8 -8 19 0 76 -49 76 -67 1 -19 11 -33 24 -33 21 0 17 -18
-6 -25 -11 -3 -20 -11 -20 -16 0 -13 24 -11 38 3 9 9 15 9 25 -1 10 -10 8 -11
-8 -5 -16 6 -18 5 -7 -7 6 -7 12 -19 12 -27 0 -7 7 -20 15 -28 23 -23 18 -34
-15 -34 -32 0 -37 9 -18 28 9 9 7 12 -10 12 -14 0 -22 6 -22 18 0 9 -14 26
-30 37 -35 23 -39 57 -10 78 11 8 17 17 13 20 -11 12 -25 8 -17 -5 5 -8 2 -9
-9 -5 -16 6 -23 -8 -18 -36 1 -5 -10 0 -23 10 -21 16 -22 20 -10 34 8 8 14 19
14 24 0 5 -6 1 -13 -9 -11 -16 -17 -17 -36 -7 -18 10 -20 15 -10 27 6 8 9 17
6 21 -4 3 -9 -2 -13 -11 -8 -21 -30 -21 -43 2 -7 11 -10 13 -11 3 0 -11 -3
-11 -15 -1 -8 7 -13 16 -10 20 3 5 -3 6 -14 3 -10 -3 -22 0 -25 6 -4 6 -13 11
-19 11 -7 0 -6 -4 3 -11 12 -9 11 -9 -5 -4 -60 22 -124 33 -130 21 -3 -8 -7
-8 -11 2 -7 15 -50 16 -59 2 -5 -8 -11 -8 -20 0 -9 8 -14 6 -19 -6 -4 -11 -13
-14 -30 -10 -15 4 -28 0 -37 -10 -11 -14 -14 -13 -26 8 -14 23 -14 23 -8 1 5
-18 1 -25 -22 -35 -15 -7 -34 -20 -41 -28 -8 -8 -11 -10 -9 -5 3 6 -2 19 -10
30 -15 20 -15 19 -8 -3 5 -17 -2 -31 -35 -63 -29 -29 -46 -39 -58 -34 -22 10
-72 17 -52 8 8 -3 21 -13 28 -22 8 -9 11 -10 7 -3 -3 6 -1 12 4 12 6 0 11 -7
11 -15 0 -8 -5 -15 -11 -15 -14 0 -33 -20 -42 -43 -5 -13 -13 -17 -29 -12 -21
6 -22 5 -5 -8 18 -15 24 -33 7 -22 -6 3 -7 -1 -4 -9 8 -20 -6 -20 -32 -1 -13
10 -15 14 -5 15 8 0 11 3 8 7 -4 3 -2 12 4 20 6 7 9 22 6 33 -4 16 -2 18 13
10 10 -5 21 -15 23 -22 4 -8 6 -7 6 4 1 9 -5 19 -11 21 -10 4 -10 8 1 15 9 7
10 12 2 16 -6 4 -11 2 -11 -3 0 -6 -5 -11 -11 -11 -6 0 -1 14 11 30 12 17 26
27 32 24 7 -4 8 -2 4 5 -8 13 70 90 92 91 6 0 12 5 12 11 0 7 9 9 21 6 12 -3
18 -3 15 0 -7 8 20 33 36 33 8 0 19 5 25 11 31 31 277 63 285 37z m61 -5 c-7
-2 -19 -2 -25 0 -7 3 -2 5 12 5 14 0 19 -2 13 -5z m4570 -34 c-9 -9 -12 -7
-10 9 1 14 5 18 11 12 7 -7 6 -14 -1 -21z m23 -127 c-2 -27 -7 -55 -10 -61 -4
-6 -1 -11 6 -12 10 0 10 -2 1 -6 -18 -7 -44 22 -37 41 3 9 12 16 20 16 20 0
17 17 -6 37 -14 12 -20 30 -20 56 l0 39 25 -30 c20 -24 24 -38 21 -80z m-1897
66 c11 -10 13 -10 7 0 -8 13 10 17 18 4 8 -13 -11 -35 -23 -28 -6 4 -11 2 -11
-4 0 -6 7 -13 16 -17 15 -6 15 -7 -1 -20 -10 -7 -16 -15 -13 -18 3 -3 -4 -17
-16 -30 -13 -15 -25 -20 -30 -14 -6 5 -15 9 -20 9 -6 0 0 -7 12 -16 l23 -16
-22 -16 c-16 -11 -24 -12 -27 -4 -2 7 -8 12 -13 12 -6 0 -5 -8 1 -20 7 -14 7
-20 0 -20 -5 0 -10 5 -10 10 0 6 -7 10 -16 10 -14 0 -14 3 -4 15 11 13 10 14
-6 8 -14 -5 -9 7 19 45 20 29 37 57 37 63 0 6 7 9 14 6 11 -4 13 -1 9 10 -5
13 -2 15 14 11 16 -4 19 -2 16 13 -6 22 7 25 26 7z m2566 -8 c3 -5 -2 -11 -12
-11 -17 -1 -17 -2 0 -6 23 -6 22 -23 -2 -23 -21 0 -31 17 -23 38 5 14 28 16
37 2z m-589 -38 c1 -7 0 -8 -3 -2 -10 22 -23 8 -23 -25 0 -24 5 -35 15 -35 8
0 15 -4 15 -10 0 -15 -16 -12 -34 6 -16 16 -22 65 -9 78 11 10 36 3 39 -12z
m-2768 -28 c-9 -10 -21 -13 -29 -8 -9 5 -8 9 7 15 31 12 39 10 22 -7z m2816 8
c3 -5 -1 -9 -9 -9 -8 0 -15 4 -15 9 0 4 4 8 9 8 6 0 12 -4 15 -8z m551 -27
c-2 -19 0 -35 5 -35 6 0 10 -7 10 -15 0 -8 -4 -15 -10 -15 -5 0 -10 -7 -10
-15 0 -8 6 -12 14 -9 11 4 17 -4 21 -29 7 -38 -1 -77 -16 -77 -5 0 -15 -16
-24 -36 l-15 -35 -29 17 c-17 10 -28 21 -25 25 2 4 -1 9 -8 11 -8 3 -4 20 15
56 15 28 27 61 27 72 0 12 4 19 9 16 5 -4 8 2 7 11 -2 10 2 22 8 26 8 6 7 10
-2 14 -10 4 -10 8 0 21 10 12 10 14 1 8 -8 -4 -13 -1 -13 8 0 9 9 16 20 16 17
0 19 -5 15 -35z m-3331 -1 c8 -20 -1 -34 -20 -34 -15 0 -17 9 -8 34 8 20 20
20 28 0z m-1874 2 c0 -2 -8 -10 -17 -17 -16 -13 -17 -12 -4 4 13 16 21 21 21
13z m4637 -18 c2 -18 0 -20 -7 -8 -12 18 -13 30 -2 30 4 0 9 -10 9 -22z m25
-40 c-6 -6 -12 -6 -16 1 -4 6 -2 11 3 11 6 0 12 12 12 28 l2 27 4 -29 c3 -16
0 -33 -5 -38z m62 46 c18 -17 22 -69 6 -79 -6 -3 -18 -4 -28 -1 -14 5 -16 15
-14 51 4 48 11 54 36 29z m-4898 -9 c10 -8 26 -15 35 -15 18 0 69 -61 69 -82
0 -29 -24 -38 -107 -38 -70 0 -86 3 -103 20 -11 11 -20 24 -20 28 0 5 9 17 20
27 11 10 20 26 20 36 0 35 52 50 86 24z m2214 5 c0 -5 -13 -10 -30 -10 -16 0
-30 5 -30 10 0 6 14 10 30 10 17 0 30 -4 30 -10z m73 -7 c-7 -2 -19 -2 -25 0
-7 3 -2 5 12 5 14 0 19 -2 13 -5z m2701 -9 c9 -3 16 -14 15 -23 0 -10 -2 -11
-6 -3 -7 17 -33 15 -33 -4 0 -9 5 -12 11 -8 7 4 10 1 7 -7 -3 -8 -11 -13 -17
-11 -6 1 -11 -5 -11 -13 0 -8 7 -15 15 -15 8 0 15 -4 15 -10 0 -14 -23 -13
-42 3 -12 9 -13 21 -6 55 9 41 19 49 52 36z m-2914 -11 c0 -14 -19 -38 -25
-32 -8 8 5 39 16 39 5 0 9 -3 9 -7z m56 -88 c-8 -18 -14 -21 -24 -13 -7 6 -10
18 -7 27 2 9 0 23 -6 31 -8 12 -9 11 -5 -5 3 -11 2 -26 -3 -33 -6 -10 -10 -7
-15 13 -4 16 -2 33 5 41 10 13 16 11 39 -11 24 -23 26 -30 16 -50z m2964 43
c0 -6 -6 -5 -16 3 -14 11 -18 10 -30 -6 -8 -10 -14 -27 -14 -38 0 -15 5 -18
25 -15 17 4 25 1 25 -8 0 -17 -42 -18 -58 -2 -18 18 -14 56 8 78 16 16 25 18
40 10 11 -6 20 -16 20 -22z m-400 12 c0 -5 -9 -10 -20 -10 -11 0 -20 5 -20 10
0 6 9 10 20 10 11 0 20 -4 20 -10z m571 -17 c-12 -20 -14 -14 -5 12 4 9 9 14
11 11 3 -2 0 -13 -6 -23z m-7911 -4 c0 -8 4 -8 15 1 17 14 119 4 109 -11 -3
-5 2 -6 10 -3 17 6 121 -25 112 -34 -9 -8 15 -33 25 -26 5 3 9 0 9 -7 0 -6 8
-9 19 -6 14 3 18 1 14 -9 -3 -10 0 -12 10 -9 8 4 17 -1 21 -10 3 -9 0 -18 -9
-21 -8 -3 -11 -12 -8 -22 5 -12 2 -14 -11 -9 -10 4 -22 7 -27 7 -6 0 -7 4 -4
10 4 6 -1 7 -11 3 -13 -5 -16 -3 -11 10 3 9 3 16 -1 16 -27 -4 -34 1 -22 16 7
9 10 19 6 23 -4 4 -12 -1 -17 -11 -15 -25 -32 -21 -18 5 10 18 9 20 -5 15 -20
-8 -20 -3 0 17 14 14 14 16 0 16 -9 0 -23 -15 -32 -32 -10 -18 -19 -27 -21
-20 -3 6 -9 10 -14 6 -16 -9 -49 7 -49 24 0 13 -2 14 -9 4 -8 -13 -91 -25 -91
-13 0 4 -9 7 -20 7 -11 0 -20 -5 -20 -11 0 -5 -4 -4 -9 4 -5 7 -4 28 2 47 8
26 16 34 34 34 13 0 23 -5 23 -11z m7340 -9 c0 -5 -7 -10 -15 -10 -8 0 -15 5
-15 10 0 6 7 10 15 10 8 0 15 -4 15 -10z m-7427 -44 c-3 -16 -13 -22 -36 -24
-17 -2 -38 -8 -46 -14 -13 -10 -14 -10 -3 2 6 8 12 23 12 34 0 16 3 17 12 8
17 -17 29 -15 22 3 -4 8 -1 15 6 15 6 0 8 5 5 11 -4 6 1 6 12 -2 13 -7 18 -20
16 -33z m7877 1 c0 -10 -4 -16 -9 -12 -6 3 -14 -3 -20 -12 -14 -24 -14 -7 1
34 12 33 28 28 28 -10z m-2964 7 c-3 -8 -2 -12 3 -9 5 3 12 1 16 -5 4 -6 11
-8 16 -4 16 9 59 -5 59 -20 0 -9 8 -12 26 -8 19 3 25 1 20 -7 -4 -6 -2 -11 3
-11 6 0 11 5 11 12 0 6 7 3 16 -8 13 -16 15 -16 10 -1 -3 11 0 17 10 17 9 0
12 -5 8 -12 -5 -9 -2 -9 9 1 11 9 29 11 50 7 19 -4 27 -3 19 3 -10 6 -8 10 11
15 14 3 32 9 41 12 9 4 16 3 14 -2 -2 -5 2 -9 7 -9 6 0 9 5 7 11 -3 15 25 26
33 14 4 -6 17 -3 31 7 24 15 25 15 22 -2 -2 -10 3 -20 10 -22 8 -3 10 1 5 14
-3 10 -3 15 1 12 4 -4 9 -17 11 -29 2 -12 2 -20 -2 -16 -3 3 -12 1 -20 -6 -11
-8 -17 -7 -28 8 -14 18 -14 17 -5 -8 6 -18 6 -29 0 -33 -6 -4 -10 0 -11 7 0
10 -2 10 -6 1 -2 -7 -11 -13 -19 -13 -8 0 -14 -4 -14 -10 0 -13 -32 0 -46 18
-6 8 -16 12 -22 8 -14 -9 -16 -46 -2 -46 5 0 7 6 4 14 -3 8 -1 17 4 20 5 3 9
-5 8 -17 -1 -31 -64 -35 -75 -4 -5 14 -10 17 -15 8 -4 -6 -3 -17 2 -24 8 -9
-1 -12 -34 -12 -37 0 -44 3 -45 20 0 11 -3 14 -6 8 -7 -18 -33 -16 -40 3 -6
15 -7 15 -19 -1 -12 -17 -15 -17 -38 -1 -14 9 -32 16 -41 16 -8 0 -14 5 -12
12 1 6 -8 17 -21 23 -20 11 -21 14 -7 25 8 7 15 19 15 26 0 8 7 14 16 14 10 0
14 -5 10 -16z m2524 -11 c0 -14 -3 -23 -7 -20 -3 4 -12 2 -20 -4 -10 -9 -13
-6 -13 14 0 23 10 34 33 36 4 1 7 -11 7 -26z m470 -11 c0 -15 -2 -15 -10 -2
-13 20 -13 33 0 25 6 -3 10 -14 10 -23z m-8010 -18 c0 -8 -4 -12 -10 -9 -5 3
-10 13 -10 21 0 8 5 12 10 9 6 -3 10 -13 10 -21z m8040 -5 c0 -3 -6 -6 -14 -6
-8 0 -11 8 -8 20 4 14 7 16 13 5 5 -7 9 -16 9 -19z m-8072 -20 c-3 -8 -7 -3
-11 10 -4 17 -3 21 5 13 5 -5 8 -16 6 -23z m2372 16 c11 -13 8 -15 -13 -15
-19 0 -25 4 -21 15 4 8 10 15 14 15 4 0 13 -7 20 -15z m1010 5 c0 -5 -8 -10
-17 -11 -16 0 -15 -2 2 -10 18 -8 18 -8 -4 -6 -30 2 -39 23 -14 30 30 8 33 7
33 -3z m4640 -5 c0 -8 -2 -15 -4 -15 -2 0 -6 7 -10 15 -3 8 -1 15 4 15 6 0 10
-7 10 -15z m105 -12 c7 -21 -10 -39 -20 -22 -6 8 -4 10 5 4 8 -5 11 -3 8 6 -3
8 -11 13 -17 12 -6 -2 -11 4 -11 12 0 18 26 9 35 -12z m-8145 -18 c0 -5 -5 -3
-10 5 -5 8 -10 20 -10 25 0 6 5 3 10 -5 5 -8 10 -19 10 -25z m7605 6 c6 -10
-25 -31 -44 -31 -18 0 -12 28 7 33 28 8 31 7 37 -2z m-5222 -8 c-7 -2 -19 -2
-25 0 -7 3 -2 5 12 5 14 0 19 -2 13 -5z m1027 -13 c0 -13 -28 -25 -38 -16 -3
4 0 11 8 16 20 13 30 12 30 0z m-3480 -21 c0 -23 -21 -22 -28 2 -3 11 -2 11 7
-1 9 -13 11 -13 11 3 0 9 2 17 5 17 3 0 5 -9 5 -21z m701 -5 c11 -14 10 -15
-7 -12 -14 2 -18 -2 -16 -17 3 -19 3 -19 -15 -2 -17 18 -17 19 1 33 24 17 21
17 37 -2z m6979 -7 c0 -13 -6 -29 -12 -37 -11 -12 -10 -12 5 -1 25 19 31 8 10
-18 -26 -32 -53 -19 -51 25 2 48 48 77 48 31z m180 -6 c3 -2 -3 -1 -12 2 -12
4 -15 2 -11 -9 3 -7 0 -14 -6 -14 -6 0 -11 12 -11 26 0 26 5 26 40 -5z m-7140
-26 c-7 -8 -17 -15 -22 -15 -6 0 -5 7 2 15 7 8 17 15 22 15 6 0 5 -7 -2 -15z
m7204 -20 c9 -14 13 -25 9 -25 -14 1 -43 27 -43 39 0 19 17 12 34 -14z m-119
2 c10 -8 14 -17 8 -20 -15 -10 -53 4 -53 19 0 18 21 18 45 1z m-7520 -7 c3 -5
18 -10 33 -10 25 0 82 -48 82 -69 0 -34 -81 -61 -182 -61 -48 0 -68 29 -44 65
9 14 16 30 16 36 0 36 77 67 95 39z m7685 -20 c0 -16 -2 -30 -4 -30 -2 0 -6
14 -8 30 -3 17 -1 30 4 30 4 0 8 -13 8 -30z m32 -10 c3 -19 1 -29 -6 -27 -12
4 -17 57 -6 57 4 0 10 -14 12 -30z m-297 8 c11 -11 10 -17 -8 -38 -12 -13 -14
-19 -5 -11 21 15 38 7 38 -19 0 -21 20 -38 21 -18 0 9 2 8 6 -2 12 -28 97
-111 133 -128 19 -9 41 -24 48 -34 19 -26 108 -25 142 2 15 12 18 18 8 14 -33
-11 -19 12 20 33 20 12 54 31 75 42 21 12 42 19 48 16 5 -4 9 1 9 9 0 25 19
19 32 -9 14 -31 5 -43 -19 -24 -14 11 -14 8 2 -10 11 -14 14 -21 6 -16 -11 6
-13 4 -8 -8 6 -16 -26 -57 -45 -57 -5 0 -21 -8 -35 -17 -15 -10 -47 -23 -72
-29 -39 -10 -47 -10 -58 5 -10 14 -11 13 -6 -6 3 -13 1 -23 -5 -23 -6 0 -12
10 -14 22 -2 12 -9 23 -16 26 -19 6 -11 -51 8 -60 9 -4 2 -7 -19 -7 -42 -1
-112 19 -105 30 3 5 -2 6 -10 3 -9 -3 -28 8 -48 28 -19 18 -23 24 -9 13 l26
-20 -18 21 c-9 11 -14 24 -10 28 5 4 3 7 -2 6 -24 -5 -35 2 -36 23 0 19 -1 19
-7 4 -7 -16 -10 -16 -30 8 -12 14 -20 25 -17 25 3 0 -4 9 -16 21 -11 11 -18
27 -15 35 3 9 1 12 -4 9 -6 -3 -10 1 -10 9 0 9 -4 16 -9 16 -5 0 -12 12 -15
28 -4 15 -9 35 -12 44 -4 13 -1 16 9 12 8 -3 18 -1 22 5 8 14 13 14 30 -1z
m160 -8 c14 -16 15 -20 4 -20 -16 0 -39 19 -39 32 0 14 16 9 35 -12z m201 -1
c3 -5 -2 -6 -10 -3 -11 4 -16 0 -16 -11 0 -9 5 -13 10 -10 6 3 10 2 10 -4 0
-19 -17 -20 -34 -2 -21 23 -12 51 15 44 11 -3 22 -9 25 -14z m242 9 c7 -7 12
-18 12 -25 0 -11 -4 -11 -20 -1 -11 7 -20 18 -20 25 0 16 12 17 28 1z m-5756
-40 c-17 -17 -15 -45 6 -57 16 -10 16 -10 -1 -11 -25 0 -44 45 -27 65 7 8 17
15 23 15 7 0 7 -4 -1 -12z m219 -34 c-2 -30 0 -35 16 -32 22 4 30 47 11 60 -9
7 -8 8 7 6 24 -4 32 -42 15 -64 -7 -7 -25 -14 -41 -14 -27 0 -29 3 -29 38 0
38 8 57 19 46 3 -3 4 -21 2 -40z m5539 5 c0 -11 -4 -19 -8 -19 -11 0 -32 46
-25 54 10 10 33 -15 33 -35z m-5658 2 c-5 -33 19 -48 39 -25 10 12 10 20 1 35
-7 11 -8 19 -2 19 5 0 14 -9 20 -19 7 -15 5 -24 -8 -41 -16 -19 -21 -20 -45
-9 -26 12 -37 46 -20 62 14 14 19 6 15 -22z m238 14 c0 -8 7 -15 16 -15 8 0
12 -5 9 -10 -4 -6 -11 -8 -16 -5 -5 4 -9 -1 -9 -11 0 -11 6 -15 20 -11 11 3
20 1 20 -4 0 -5 -13 -9 -30 -9 -28 0 -30 2 -30 40 0 22 5 40 10 40 6 0 10 -7
10 -15z m150 6 c0 -5 -9 -7 -21 -4 -12 4 -25 0 -30 -8 -12 -19 -11 -25 7 -43
12 -13 12 -16 2 -16 -19 0 -38 20 -38 40 0 9 5 21 12 28 14 14 68 16 68 3z
m93 -31 c17 -45 5 -55 -16 -14 l-14 27 -7 -27 c-3 -14 -10 -26 -15 -26 -5 0
-2 18 6 40 9 22 19 40 23 40 4 0 14 -18 23 -40z m91 15 c4 -14 11 -23 16 -20
12 8 13 -5 1 -24 -8 -12 -12 -9 -23 14 l-13 29 -6 -30 c-5 -27 -6 -26 -10 14
-4 34 -2 42 12 42 10 0 20 -11 23 -25z m57 -17 c-4 -34 -6 -37 -9 -15 -2 15
-7 27 -12 27 -5 0 -7 7 -4 15 4 8 11 15 18 15 8 0 10 -14 7 -42z m107 20 c2
-10 -1 -18 -7 -18 -6 0 -11 7 -11 15 0 8 -4 15 -10 15 -5 0 -10 -13 -10 -30 0
-16 -4 -30 -10 -30 -5 0 -10 16 -10 36 0 33 2 35 27 32 17 -2 29 -10 31 -20z
m4552 7 c7 -8 8 -15 2 -15 -5 0 -15 7 -22 15 -7 8 -8 15 -2 15 5 0 15 -7 22
-15z m102 -40 c20 -4 45 -13 55 -20 17 -13 17 -14 0 -21 -20 -7 -128 44 -135
65 -3 9 2 9 19 -2 13 -9 41 -19 61 -22z m245 0 c8 -9 12 -23 9 -32 -6 -14 -8
-14 -26 2 -22 19 -27 45 -9 45 6 0 17 -7 26 -15z m-5687 -5 c0 -5 -4 -10 -10
-10 -5 0 -10 5 -10 10 0 6 5 10 10 10 6 0 10 -4 10 -10z m440 -10 c0 -5 -5
-10 -11 -10 -5 0 -7 5 -4 10 3 6 8 10 11 10 2 0 4 -4 4 -10z m-567 -21 c4 -16
3 -19 -5 -11 -6 6 -17 8 -24 5 -8 -3 -14 -1 -14 5 0 9 15 19 31 21 4 1 9 -9
12 -20z m1004 -34 c-6 -17 -47 -18 -47 -2 0 10 9 14 25 13 14 0 24 -5 22 -11z
m-3670 -1 c-3 -3 -12 -4 -19 -1 -8 3 -5 6 6 6 11 1 17 -2 13 -5z m2680 -14 c1
-13 -4 -20 -17 -20 -24 0 -36 20 -19 31 22 14 35 10 36 -11z m-2694 -7 c-7 -2
-19 -2 -25 0 -7 3 -2 5 12 5 14 0 19 -2 13 -5z m3647 -23 c10 -19 10 -20 -9
-8 -11 6 -17 16 -15 20 8 12 12 10 24 -12z m-3650 -10 c0 -5 -5 -10 -11 -10
-5 0 -8 -4 -5 -9 6 -10 -24 -25 -32 -16 -3 3 0 5 8 5 10 0 10 3 1 14 -10 11
-8 15 6 19 30 8 33 7 33 -3z m2709 -11 c-22 -14 -33 -10 -19 6 7 8 17 12 22 9
6 -4 5 -10 -3 -15z m932 -19 c4 0 6 -7 3 -15 -5 -11 -11 -12 -25 -4 -23 12
-26 34 -3 25 9 -3 20 -6 25 -6z m4534 0 c3 -5 1 -10 -4 -10 -6 0 -11 5 -11 10
0 6 2 10 4 10 3 0 8 -4 11 -10z m-5015 -32 c0 -6 -7 -5 -15 2 -8 7 -15 17 -15
22 0 6 7 5 15 -2 8 -7 15 -17 15 -22z m27 0 c-3 -7 -5 -2 -5 12 0 14 2 19 5
13 2 -7 2 -19 0 -25z m50 0 c-3 -7 -5 -2 -5 12 0 14 2 19 5 13 2 -7 2 -19 0
-25z m36 12 c3 -11 1 -18 -4 -14 -5 3 -9 12 -9 20 0 20 7 17 13 -6z m-527 -15
c-11 -8 -24 -15 -30 -15 -5 0 -1 7 10 15 10 8 24 14 29 14 6 0 1 -6 -9 -14z
m1682 -14 c44 -32 63 -54 38 -45 -9 3 -16 9 -16 14 0 4 -18 15 -40 25 -22 10
-40 22 -40 27 0 15 16 9 58 -21z m-808 -3 c0 -15 -18 -17 -36 -3 -18 14 -17
14 9 13 15 -1 27 -6 27 -10z m-846 -5 c-5 -5 -12 -12 -16 -18 -4 -6 -8 -2 -8
8 0 9 7 17 17 17 9 0 12 -3 7 -7z m-1864 -43 c0 -22 -4 -40 -8 -40 -5 0 -9 18
-10 40 -1 22 3 40 8 40 6 0 10 -18 10 -40z m40 31 c0 -5 -6 -14 -14 -20 -12
-10 -13 -8 -9 8 5 21 23 30 23 12z m2620 -1 c0 -5 -2 -10 -4 -10 -3 0 -8 5
-11 10 -3 6 -1 10 4 10 6 0 11 -4 11 -10z m-2774 -36 c17 -41 11 -60 -7 -21
-7 15 -16 24 -20 21 -10 -6 -12 20 -2 29 11 11 13 9 29 -29z m51 21 c0 -8 -4
-12 -9 -9 -4 3 -8 9 -8 15 0 5 4 9 8 9 5 0 9 -7 9 -15z m2293 5 c0 -5 -4 -10
-10 -10 -5 0 -10 5 -10 10 0 6 5 10 10 10 6 0 10 -4 10 -10z m65 0 c3 -5 -3
-10 -15 -10 -12 0 -18 5 -15 10 3 6 10 10 15 10 5 0 12 -4 15 -10z m45 0 c0
-5 -5 -10 -11 -10 -5 0 -7 5 -4 10 3 6 8 10 11 10 2 0 4 -4 4 -10z m157 -4 c4
-3 -28 -6 -71 -6 -42 0 -75 3 -73 8 6 8 135 7 144 -2z m-2698 -46 c14 -41 -4
-48 -19 -7 l-12 32 -9 -32 c-5 -18 -13 -33 -18 -33 -5 0 -1 20 7 44 18 49 32
48 51 -4z m2868 42 c11 8 12 7 7 -6 -7 -18 -7 -18 -28 -10 -9 3 -16 11 -16 17
0 8 4 7 12 -1 8 -8 15 -9 25 0z m-2969 -20 c3 -11 0 -12 -15 -3 -23 12 -43 -2
-43 -31 0 -24 26 -34 45 -18 12 10 15 9 15 -4 0 -14 -8 -17 -37 -14 -35 3 -38
6 -41 36 -3 26 1 34 20 42 29 12 50 9 56 -8z m-135 -9 c-26 -5 -31 -23 -8 -23
8 0 15 -4 15 -10 0 -5 -7 -10 -16 -10 -8 0 -12 -5 -8 -11 3 -6 15 -9 25 -6 11
3 19 1 19 -4 0 -5 -6 -9 -12 -9 -7 0 -23 -3 -35 -6 -21 -6 -23 -3 -23 40 0 46
0 46 33 45 23 -1 26 -3 10 -6z m2372 -3 c3 -6 -1 -7 -9 -4 -10 4 -16 1 -16 -7
0 -7 -3 -10 -6 -6 -7 7 4 27 16 27 5 0 12 -4 15 -10z m705 -5 c6 -8 9 -19 5
-25 -14 -23 -62 -2 -52 24 8 20 31 21 47 1z m-3214 -32 c-1 -46 27 -55 32 -10
2 15 -1 27 -7 27 -6 0 -11 4 -11 9 0 17 39 -1 46 -21 8 -27 -22 -58 -58 -58
-26 0 -28 3 -28 39 0 22 5 42 13 44 6 3 13 6 13 6 1 1 1 -16 0 -36z m431 5
c-3 -8 -6 -5 -6 6 -1 11 2 17 5 13 3 -3 4 -12 1 -19z m83 12 c0 -5 -4 -10 -10
-10 -5 0 -10 5 -10 10 0 6 5 10 10 10 6 0 10 -4 10 -10z m-582 -37 c2 -23 -2
-34 -17 -42 -29 -16 -71 2 -71 32 0 32 20 48 55 45 26 -3 30 -8 33 -35z m2615
30 c3 -5 -1 -14 -9 -20 -14 -14 -30 0 -19 17 7 12 22 13 28 3z m1652 -13 c18
-19 17 -20 -3 -20 -15 0 -22 6 -22 20 0 11 2 20 3 20 2 0 12 -9 22 -20z
m-4395 0 c0 -6 -10 -8 -24 -4 -25 6 -40 -14 -30 -40 7 -18 32 -28 39 -16 8 12
25 13 25 1 0 -12 -45 -22 -64 -15 -21 8 -29 39 -16 64 11 21 70 29 70 10z
m3359 -4 c9 -10 8 -15 -3 -19 -16 -6 -40 16 -29 26 10 11 19 8 32 -7z m-2459
-18 c0 -13 -8 -18 -25 -18 -18 0 -25 5 -25 19 0 14 7 19 25 17 17 -1 25 -7 25
-18z m-2301 -47 c35 -19 41 -27 27 -29 -10 -2 -30 2 -45 10 -27 14 -31 16 -71
48 l-25 20 34 -12 c18 -6 54 -23 80 -37z m4191 28 c-7 -11 -14 -19 -16 -16 -7
7 7 37 17 37 6 0 5 -9 -1 -21z m-2940 -5 c0 -8 -9 -14 -20 -14 -11 0 -20 6
-20 13 0 7 9 13 20 14 11 1 20 -4 20 -13z m30 -16 c0 -5 -4 -8 -10 -8 -5 0
-10 10 -10 23 0 18 2 19 10 7 5 -8 10 -18 10 -22z m3415 18 c12 -12 12 -16 0
-26 -11 -9 -16 -7 -24 8 -16 30 1 42 24 18z m-465 -16 c0 -19 -11 -26 -23 -14
-8 8 3 34 14 34 5 0 9 -9 9 -20z m419 -31 c-20 -12 -26 -11 -33 7 -4 10 1 22
11 30 16 11 19 10 27 -7 7 -15 6 -23 -5 -30z m-2384 31 c4 -6 11 -8 16 -5 11
7 11 3 3 -19 -3 -9 -11 -13 -18 -9 -6 4 -14 8 -18 8 -5 0 -8 3 -8 8 0 4 0 12
0 17 0 13 17 13 25 0z m-1055 -21 c0 -6 -4 -7 -10 -4 -5 3 -10 11 -10 16 0 6
5 7 10 4 6 -3 10 -11 10 -16z m3109 6 c2 -2 1 -11 -2 -19 -9 -24 -45 -15 -50
12 -4 21 -2 23 22 17 14 -4 28 -8 30 -10z m279 -15 c-1 -30 -18 -44 -18 -14 0
8 -4 12 -10 9 -5 -3 -10 1 -10 9 0 8 8 17 18 19 9 3 18 5 19 6 1 0 1 -12 1
-29z m-3358 6 c0 -3 -4 -8 -10 -11 -5 -3 -10 -1 -10 4 0 6 5 11 10 11 6 0 10
-2 10 -4z m50 -7 c0 -5 -4 -9 -10 -9 -5 0 -6 -7 -3 -17 4 -10 2 -14 -4 -10
-16 10 -41 -2 -46 -21 -3 -10 -5 -5 -6 11 -1 18 4 27 14 27 8 0 15 6 15 13 0
7 9 13 20 14 11 1 20 -2 20 -8z m3080 -4 c14 -17 5 -35 -19 -35 -24 0 -30 8
-24 31 6 23 26 25 43 4z m48 -23 c3 -17 -2 -22 -18 -22 -16 0 -20 4 -16 16 3
9 6 20 6 26 0 19 25 1 28 -20z m46 1 c-9 -38 -12 -40 -23 -12 -10 28 -6 39 15
39 11 0 13 -7 8 -27z m46 15 c0 6 5 12 10 12 6 0 10 -11 10 -24 0 -27 -31 -32
-41 -6 -9 20 1 36 12 19 6 -10 9 -11 9 -1z m-2244 -11 c4 -3 4 -13 1 -22 -5
-12 -11 -13 -31 -4 -14 7 -22 17 -19 25 5 13 36 14 49 1z m-976 -37 c0 -5 7
-10 15 -10 8 0 12 -6 9 -14 -3 -8 -1 -17 5 -21 17 -10 14 -45 -4 -39 -8 4 -15
1 -15 -6 0 -9 -3 -10 -13 -1 -8 6 -17 7 -22 3 -4 -4 -3 3 4 15 6 12 16 24 23
26 8 4 7 6 -4 6 -9 1 -18 -5 -21 -11 -6 -17 -13 -9 -21 24 -5 20 -2 28 11 31
30 8 33 7 33 -3z m950 -10 c11 -7 12 -12 3 -21 -15 -15 -54 -2 -46 17 6 16 21
18 43 4z m-337 -20 c3 -11 1 -18 -4 -14 -5 3 -9 12 -9 20 0 20 7 17 13 -6z
m-133 -2 c0 -9 4 -8 10 2 8 12 10 11 10 -7 0 -24 -14 -31 -26 -12 -4 8 -9 8
-17 0 -15 -15 -27 -14 -27 3 0 13 13 20 43 25 4 0 7 -5 7 -11z m43 -13 c-7
-21 -13 -19 -13 6 0 11 4 18 10 14 5 -3 7 -12 3 -20z m54 3 c-3 -8 -6 -5 -6 6
-1 11 2 17 5 13 3 -3 4 -12 1 -19z m4087 16 c23 -9 20 -23 -4 -17 -11 3 -20 9
-20 14 0 11 3 11 24 3z m-4604 -39 c0 -6 9 -20 20 -30 11 -10 17 -23 13 -29
-3 -6 -3 -8 2 -4 4 4 22 -5 40 -20 57 -48 71 -58 88 -65 14 -5 16 -11 7 -27
-12 -23 -25 -27 -16 -5 3 8 3 15 0 15 -2 0 -9 -12 -15 -27 -7 -20 -6 -28 3
-35 7 -4 8 -8 2 -8 -6 0 -21 11 -34 25 -13 14 -29 25 -36 25 -19 0 -95 82 -90
97 4 8 -3 12 -16 10 -15 -1 -24 4 -26 16 -3 15 0 18 17 12 16 -5 22 -1 27 21
4 16 2 35 -6 48 -12 19 -12 20 3 7 10 -7 17 -19 17 -26z m353 15 c3 -11 1 -20
-4 -20 -5 0 -9 9 -9 20 0 11 2 20 4 20 2 0 6 -9 9 -20z m-81 -5 c12 -16 9 -21
-12 -22 -14 -1 -20 4 -20 18 0 19 19 22 32 4z m38 -5 c0 -11 -2 -20 -5 -20 -2
0 -9 9 -15 20 -9 16 -8 20 5 20 8 0 15 -9 15 -20z m544 14 c22 -9 21 -44 -2
-44 -27 0 -43 20 -29 36 14 16 12 15 31 8z m-45 -44 c17 0 41 -18 41 -32 0
-13 -36 -27 -49 -19 -6 4 -14 23 -16 42 -2 19 -1 28 2 22 2 -7 12 -13 22 -13z
m3831 11 c0 -5 -9 -7 -20 -4 -11 3 -20 7 -20 9 0 2 9 4 20 4 11 0 20 -4 20 -9z
m-4217 -24 c4 3 7 1 7 -5 0 -6 -13 -10 -30 -9 -31 2 -40 12 -17 20 6 2 17 0
23 -4 6 -5 14 -6 17 -2z m77 -3 c0 -2 -9 -4 -21 -4 -11 0 -18 4 -14 10 5 8 35
3 35 -6z m-273 -19 c-5 -13 -67 -19 -67 -6 0 10 21 16 53 17 9 0 16 -5 14 -11z
m119 8 c-10 -10 -76 -11 -76 -1 0 4 19 8 42 8 23 0 38 -3 34 -7z m454 -43 c0
-18 -22 -22 -37 -7 -21 21 -8 40 18 27 10 -6 19 -15 19 -20z m-65 -37 c10 -14
10 -20 -2 -31 -12 -13 -16 -12 -28 4 -18 24 -18 31 -2 37 19 8 19 8 32 -10z
m-62 -20 c4 9 8 8 16 -3 15 -22 13 -37 -6 -44 -10 -4 -20 -1 -25 9 -12 21 -30
8 -23 -16 8 -25 -7 -24 -30 1 -17 18 -16 19 9 26 18 4 25 11 22 20 -4 11 -1
12 13 4 14 -7 21 -6 24 3z m-438 -25 c14 -6 25 -17 25 -25 0 -7 11 -13 23 -13
13 0 27 -3 31 -7 4 -4 19 -8 34 -9 15 0 33 -2 40 -2 15 -2 16 -42 1 -42 -6 0
-8 7 -5 16 4 10 2 14 -6 11 -7 -2 -12 -10 -10 -16 1 -7 -2 -10 -8 -6 -5 3 -10
14 -10 23 -1 16 -2 16 -14 0 -18 -24 -56 -24 -56 1 0 10 -9 21 -20 24 -15 4
-20 0 -20 -14 0 -13 -7 -19 -21 -19 -18 0 -20 5 -16 28 l5 27 -15 -22 c-18
-27 -30 -30 -28 -5 2 23 24 62 35 62 5 0 21 -5 35 -12z m330 -49 c4 -12 2 -26
-4 -32 -8 -8 -11 -6 -12 9 0 18 -1 18 -9 -1 -9 -20 -9 -20 -15 2 -4 13 -12 20
-21 16 -9 -3 -12 -13 -8 -25 4 -13 2 -19 -6 -16 -6 2 -12 8 -12 13 0 6 -4 16
-10 22 -12 15 8 23 79 32 6 0 15 -8 18 -20z m-113 -24 c4 -21 1 -25 -18 -25
-17 0 -24 6 -24 18 0 39 35 45 42 7z"/>
<path d="M5650 5325 l-23 -13 21 -6 c27 -9 64 2 60 16 -6 16 -31 17 -58 3z"/>
<path d="M4193 5299 c-42 -12 -42 -33 -4 -97 17 -26 32 -61 35 -77 2 -17 8
-50 11 -75 7 -45 24 -88 25 -62 0 6 6 12 14 12 8 0 16 8 18 17 2 11 13 18 28
18 l25 0 3 120 c3 113 1 121 -19 138 -23 19 -83 21 -136 6z"/>
<path d="M3960 5290 c-120 -21 -141 -22 -183 -12 -85 22 -146 -15 -127 -78 10
-31 31 -198 34 -265 1 -27 8 -61 15 -73 12 -23 15 -24 124 -18 160 8 265 19
276 31 15 16 15 29 7 217 -6 125 -12 180 -21 188 -18 15 -72 20 -125 10z"/>
<path d="M3385 5259 c-22 -4 -82 -8 -133 -7 -114 0 -124 -6 -117 -76 30 -320
31 -326 65 -326 34 0 42 34 38 172 -3 126 -2 130 21 149 44 36 144 14 156 -34
4 -13 1 -35 -4 -51 -17 -43 -13 -79 14 -127 14 -24 30 -57 36 -73 19 -46 112
-74 139 -41 9 11 10 44 6 122 -13 228 -18 274 -33 289 -16 16 -119 18 -188 3z"/>
<path d="M2784 5250 c-101 -3 -146 -9 -158 -19 -16 -13 -17 -28 -11 -135 4
-67 11 -139 17 -161 6 -22 10 -61 9 -87 -1 -69 21 -82 120 -68 41 6 93 15 117
21 23 5 69 9 102 9 48 0 64 4 81 21 20 20 21 28 14 128 -8 119 -29 279 -39
288 -8 9 -87 10 -252 3z"/>
<path d="M2412 5202 c-7 -20 -6 -35 3 -52 9 -17 11 -59 7 -152 -4 -107 -2
-131 11 -146 8 -9 22 -34 30 -54 18 -43 38 -43 57 1 8 20 8 45 0 97 -6 38 -11
92 -12 119 0 28 -6 65 -14 84 -9 21 -12 47 -8 68 7 39 -8 63 -41 63 -16 0 -26
-8 -33 -28z"/>
<path d="M5648 5163 c-41 -47 -63 -158 -34 -169 8 -3 25 0 38 6 36 19 98 82
98 100 0 18 -60 80 -76 80 -6 0 -18 -8 -26 -17z"/>
<path d="M5465 4950 c-12 -19 -8 -69 5 -86 28 -33 45 26 25 84 -5 15 -21 16
-30 2z"/>
<path d="M5343 4683 c-48 -4 -53 -7 -59 -31 -3 -15 -12 -46 -21 -70 -17 -48
-12 -72 15 -72 20 0 52 29 52 48 0 18 51 14 72 -5 30 -27 52 -6 56 50 4 57
-11 88 -41 85 -12 -1 -46 -3 -74 -5z"/>
<path d="M3177 4663 c-12 -11 -7 -37 12 -62 l19 -24 12 22 c15 30 5 71 -19 71
-10 0 -21 -3 -24 -7z"/>
<path d="M5855 4602 c-14 -9 -13 -34 2 -39 6 -2 14 1 18 6 9 15 -8 42 -20 33z"/>
<path d="M1468 5308 c-16 -5 -28 -13 -28 -18 0 -7 107 -30 143 -30 21 0 21 4
1 35 -18 27 -64 33 -116 13z"/>
<path d="M1700 5233 c0 -5 5 -15 10 -23 8 -12 10 -11 10 8 0 12 -4 22 -10 22
-5 0 -10 -3 -10 -7z"/>
<path d="M1432 5191 c-7 -4 -16 -23 -18 -42 l-6 -34 20 21 c17 18 30 21 69 18
39 -3 43 -2 18 5 -16 5 -22 9 -13 10 9 0 20 6 24 13 5 8 -2 9 -24 5 -17 -4
-34 -2 -37 3 -7 12 -16 12 -33 1z"/>
<path d="M1810 5106 c0 -2 7 -7 16 -10 8 -3 12 -2 9 4 -6 10 -25 14 -25 6z"/>
<path d="M905 4527 c-4 -10 -5 -21 -1 -24 10 -10 18 4 13 24 -4 17 -4 17 -12
0z"/>
<path d="M895 4481 c-3 -5 -1 -12 5 -16 5 -3 10 1 10 9 0 18 -6 21 -15 7z"/>
<path d="M3375 3881 c-7 -12 12 -24 25 -16 11 7 4 25 -10 25 -5 0 -11 -4 -15
-9z"/>
<path d="M4470 3851 c0 -5 5 -13 10 -16 6 -3 10 -2 10 4 0 5 -4 13 -10 16 -5
3 -10 2 -10 -4z"/>
<path d="M1330 3146 c0 -2 7 -7 16 -10 8 -3 12 -2 9 4 -6 10 -25 14 -25 6z"/>
<path d="M6901 2574 c0 -11 3 -14 6 -6 3 7 2 16 -1 19 -3 4 -6 -2 -5 -13z"/>
<path d="M6685 2560 c-3 -5 -1 -10 5 -10 6 0 8 -4 5 -10 -3 -5 1 -10 9 -10 20
0 21 14 2 29 -10 8 -16 9 -21 1z"/>
<path d="M7120 2531 c0 -5 5 -13 10 -16 6 -3 10 -2 10 4 0 5 -4 13 -10 16 -5
3 -10 2 -10 -4z"/>
<path d="M7221 2477 c-13 -21 -12 -21 5 -5 10 10 16 20 13 22 -3 3 -11 -5 -18
-17z"/>
<path d="M7248 2438 c-10 -12 -15 -24 -11 -27 3 -3 8 -1 10 6 2 7 10 10 18 7
8 -4 13 1 11 10 -4 25 -10 26 -28 4z"/>
<path d="M7190 2446 c0 -2 7 -9 15 -16 13 -11 14 -10 9 4 -5 14 -24 23 -24 12z"/>
<path d="M7315 2360 c-8 -13 15 -24 27 -12 6 6 4 11 -6 15 -8 3 -18 2 -21 -3z"/>
<path d="M9670 2330 c-9 -6 -10 -10 -3 -10 6 0 15 5 18 10 8 12 4 12 -15 0z"/>
<path d="M9385 2271 c-3 -5 -2 -12 3 -15 5 -3 9 1 9 9 0 17 -3 19 -12 6z"/>
<path d="M9407 2243 c-4 -3 -7 -11 -7 -17 0 -6 5 -5 12 2 6 6 9 14 7 17 -3 3
-9 2 -12 -2z"/>
<path d="M9845 2159 c-4 -6 -5 -12 -2 -15 2 -3 7 2 10 11 7 17 1 20 -8 4z"/>
<path d="M6526 2345 c4 -8 10 -12 15 -9 11 6 2 24 -11 24 -5 0 -7 -7 -4 -15z"/>
<path d="M7375 2200 c3 -5 8 -10 11 -10 2 0 4 5 4 10 0 6 -5 10 -11 10 -5 0
-7 -4 -4 -10z"/>
<path d="M6678 1995 c-13 -28 -6 -40 17 -32 17 7 21 57 5 57 -6 0 -16 -11 -22
-25z"/>
<path d="M6777 1988 c-3 -12 -4 -25 -1 -30 9 -13 34 12 34 33 0 26 -26 24 -33
-3z"/>
<path d="M7280 1985 c0 -8 5 -15 10 -15 6 0 10 7 10 15 0 8 -4 15 -10 15 -5 0
-10 -7 -10 -15z"/>
<path d="M4467 1940 c-6 -24 8 -27 17 -4 4 9 13 14 22 10 8 -3 12 -2 9 4 -11
17 -42 11 -48 -10z"/>
<path d="M4336 1883 c-6 -14 -5 -15 5 -6 7 7 10 15 7 18 -3 3 -9 -2 -12 -12z"/>
<path d="M4230 1845 c-7 -9 -8 -15 -2 -15 5 0 12 7 16 15 3 8 4 15 2 15 -2 0
-9 -7 -16 -15z"/>
<path d="M4260 1799 c0 -5 5 -7 10 -4 6 3 10 8 10 11 0 2 -4 4 -10 4 -5 0 -10
-5 -10 -11z"/>
<path d="M5030 1669 c0 -5 5 -7 10 -4 6 3 10 8 10 11 0 2 -4 4 -10 4 -5 0 -10
-5 -10 -11z"/>
<path d="M9920 1579 c-10 -18 -9 -20 12 -17 12 2 24 11 26 21 5 24 -25 22 -38
-4z"/>
<path d="M6625 1760 c-3 -5 -1 -10 4 -10 6 0 11 5 11 10 0 6 -2 10 -4 10 -3 0
-8 -4 -11 -10z"/>
<path d="M9470 1725 c0 -19 5 -35 10 -35 6 0 10 16 10 35 0 19 -4 35 -10 35
-5 0 -10 -16 -10 -35z"/>
<path d="M1916 1672 c-2 -4 2 -16 10 -27 12 -16 14 -17 14 -2 0 9 -5 17 -11
17 -5 0 -7 5 -4 10 3 6 4 10 1 10 -3 0 -7 -3 -10 -8z"/>
<path d="M6840 1600 c0 -5 5 -10 11 -10 5 0 7 5 4 10 -3 6 -8 10 -11 10 -2 0
-4 -4 -4 -10z"/>
<path d="M6790 1582 c0 -25 16 -37 23 -18 3 8 -1 20 -9 26 -11 10 -14 9 -14
-8z"/>
<path d="M7120 1570 c0 -5 5 -10 10 -10 6 0 10 5 10 10 0 6 -4 10 -10 10 -5 0
-10 -4 -10 -10z"/>
<path d="M6962 1530 c0 -14 2 -19 5 -12 2 6 2 18 0 25 -3 6 -5 1 -5 -13z"/>
<path d="M9350 1341 c0 -5 5 -13 10 -16 6 -3 10 -2 10 4 0 5 -4 13 -10 16 -5
3 -10 2 -10 -4z"/>
<path d="M9411 1254 c0 -11 3 -14 6 -6 3 7 2 16 -1 19 -3 4 -6 -2 -5 -13z"/>
<path d="M9730 1155 c0 -8 5 -15 10 -15 6 0 10 7 10 15 0 8 -4 15 -10 15 -5 0
-10 -7 -10 -15z"/>
<path d="M9495 1149 c-4 -6 -5 -12 -2 -15 2 -3 7 2 10 11 7 17 1 20 -8 4z"/>
<path d="M9598 1093 c7 -3 16 -2 19 1 4 3 -2 6 -13 5 -11 0 -14 -3 -6 -6z"/>
<path d="M4950 1050 c0 -5 5 -10 11 -10 5 0 7 5 4 10 -3 6 -8 10 -11 10 -2 0
-4 -4 -4 -10z"/>
<path d="M1637 1024 c-12 -12 -8 -41 7 -53 17 -14 39 9 34 36 -3 18 -29 29
-41 17z"/>
<path d="M4510 910 c0 -5 5 -10 10 -10 6 0 10 5 10 10 0 6 -4 10 -10 10 -5 0
-10 -4 -10 -10z"/>
<path d="M1535 690 c-3 -5 -2 -10 4 -10 5 0 13 5 16 10 3 6 2 10 -4 10 -5 0
-13 -4 -16 -10z"/>
<path d="M2325 750 c3 -5 8 -10 11 -10 2 0 4 5 4 10 0 6 -5 10 -11 10 -5 0 -7
-4 -4 -10z"/>
<path d="M9550 6723 c0 -15 6 -50 13 -78 10 -38 18 -51 34 -53 32 -5 65 56 61
110 l-3 43 -52 3 c-52 3 -53 3 -53 -25z"/>
<path d="M9687 6512 c-20 -12 -27 -23 -24 -38 2 -13 -3 -26 -15 -33 -10 -6
-23 -31 -29 -56 -6 -24 -18 -50 -25 -56 -15 -12 -111 -8 -146 6 -13 5 -20 0
-28 -19 -13 -35 -49 -34 -85 4 -49 51 -98 16 -64 -46 14 -27 33 -33 73 -22 21
5 34 3 46 -7 12 -11 35 -14 81 -13 63 3 64 3 80 -29 9 -18 34 -50 56 -71 l39
-38 33 20 c19 11 57 25 85 31 l51 11 3 62 c2 51 0 63 -14 69 -12 4 -25 -4 -43
-25 -32 -39 -68 -42 -101 -7 l-23 25 36 15 c20 8 43 15 52 15 22 0 19 29 -10
83 -25 47 -26 67 -2 67 7 0 21 7 31 15 19 14 19 15 1 35 -21 23 -21 23 -58 2z"/>
<path d="M9930 6174 c-15 -38 -13 -44 16 -44 24 0 94 46 94 63 0 4 -23 7 -50
7 -45 0 -52 -3 -60 -26z"/>
<path d="M9386 6114 c-9 -8 -17 -23 -17 -32 -6 -79 -11 -84 -83 -90 -45 -4
-59 -1 -86 19 -17 13 -38 39 -46 57 -10 26 -19 33 -36 30 -27 -4 -29 -31 -5
-93 13 -34 20 -41 49 -45 45 -7 44 -35 -2 -58 -45 -22 -50 -53 -14 -87 22 -20
37 -25 79 -25 83 0 102 -44 32 -74 -19 -8 -37 -18 -39 -22 -8 -14 20 -74 35
-75 6 0 20 -2 29 -4 10 -2 20 1 23 6 3 4 21 16 39 24 19 9 36 25 39 36 3 10
13 22 24 25 10 4 32 19 48 34 17 15 55 40 85 56 30 15 57 29 59 31 9 6 -23 33
-35 29 -7 -3 -14 0 -16 5 -2 5 -17 11 -33 13 -40 4 -47 42 -14 67 20 15 27 16
50 4 23 -13 28 -12 48 6 21 20 26 44 15 73 -4 12 -20 16 -54 16 -54 0 -80 18
-80 55 0 36 -64 50 -94 19z m37 -216 c7 -26 -26 -68 -54 -68 -19 0 -33 26 -23
43 28 49 68 62 77 25z"/>
<path d="M10070 5906 c-16 -16 -12 -26 10 -26 11 0 20 6 20 14 0 8 6 16 13 19
6 3 2 4 -11 4 -12 -1 -27 -6 -32 -11z"/>
<path d="M10624 5822 c-17 -12 -17 -88 1 -106 29 -29 75 13 75 68 0 14 -3 27
-7 29 -19 10 -59 16 -69 9z"/>
<path d="M11123 5802 c-8 -5 -7 -11 2 -19 10 -10 14 -9 19 2 6 17 -5 26 -21
17z"/>
<path d="M9070 5695 c0 -8 7 -15 15 -15 8 0 15 7 15 15 0 8 -7 15 -15 15 -8 0
-15 -7 -15 -15z"/>
<path d="M10500 5706 c0 -2 8 -10 18 -17 15 -13 16 -12 3 4 -13 16 -21 21 -21
13z"/>
<path d="M11347 5696 c-21 -16 -22 -42 -1 -50 22 -9 34 1 34 29 0 30 -10 37
-33 21z"/>
<path d="M10627 5564 c-8 -8 1 -24 14 -24 5 0 9 7 9 15 0 15 -12 20 -23 9z"/>
<path d="M8030 5516 c-19 -7 -35 -19 -35 -26 0 -16 60 -31 92 -23 33 8 48 30
33 48 -15 18 -42 18 -90 1z"/>
</g>
</svg>
